<svg width="70" height="70" viewBox="0 0 70 70" fill="none" xmlns="http://www.w3.org/2000/svg">
<path d="M64.6896 20.5045L61.3675 23.8266C63.9503 29.923 64.3338 36.7276 62.4524 43.0755C60.571 49.4235 56.5416 54.9202 51.054 58.6247C45.5664 62.3292 38.9619 64.0111 32.3709 63.3825C25.7798 62.754 19.6122 59.8541 14.9236 55.1792C10.2351 50.5044 7.31735 44.3452 6.66963 37.7561C6.02191 31.1669 7.68454 24.5575 11.373 19.0592C15.0615 13.5609 20.5465 9.5155 26.889 7.61561C33.2315 5.71573 40.0371 6.07942 46.1409 8.64446L49.4631 5.32232C44.961 3.1202 40.0126 1.9835 35.0008 2.00018C27.8356 2.00003 20.8649 4.33194 15.1422 8.64358C9.4195 12.9552 5.25559 19.0123 3.27963 25.8996C1.30366 32.7869 1.62309 40.1302 4.18951 46.82C6.75593 53.5097 11.43 59.1824 17.5054 62.981C23.5808 66.7795 30.7275 68.4975 37.8656 67.8753C45.0037 67.2531 51.7453 64.3246 57.0719 59.5322C62.3985 54.7398 66.0206 48.344 67.3909 41.3111C68.7612 34.2782 67.8052 26.9904 64.6674 20.5488L64.6896 20.5045Z" fill="black"/>
<path d="M35.0456 17.4523C37.04 17.4497 39.0199 17.7916 40.898 18.4628V15.742C40.8957 15.1129 41.0322 14.491 41.2978 13.9207C36.606 12.5189 31.5808 12.7225 27.0178 14.4992C22.4548 16.2758 18.6149 19.524 16.1063 23.7293C13.5977 27.9346 12.5638 32.8567 13.1683 37.7159C13.7728 42.5752 15.9811 47.0938 19.4436 50.5563C22.9061 54.0188 27.4249 56.2272 32.2841 56.8317C37.1433 57.4362 42.0653 56.4023 46.2706 53.8937C50.4759 51.3851 53.7242 47.5452 55.5008 42.9822C57.2775 38.4192 57.4811 33.3939 56.0793 28.7021C55.509 28.9678 54.8871 29.1043 54.258 29.1019H51.6371C52.3083 30.9801 52.6503 32.96 52.6477 34.9545C52.6477 38.4249 51.6186 41.8174 49.6905 44.7029C47.7625 47.5885 45.022 49.8375 41.8158 51.1655C38.6096 52.4936 35.0816 52.8411 31.6778 52.164C28.2741 51.487 25.1476 49.8159 22.6937 47.3619C20.2397 44.908 18.5686 41.7814 17.8915 38.3777C17.2145 34.974 17.5619 31.4459 18.89 28.2397C20.2181 25.0335 22.4671 22.2931 25.3526 20.365C28.2382 18.4369 31.6306 17.4079 35.101 17.4079L35.0456 17.4523Z" fill="black"/>
<path d="M44.043 13.8567C43.8964 13.9989 43.7731 14.1633 43.6777 14.3439C43.483 14.68 43.3836 15.0628 43.39 15.4512V23.4681L41.3317 25.5276L36.6397 30.2226L34.4265 32.4372V28.8495C34.4265 28.2622 34.1933 27.6989 33.7782 27.2836C33.3631 26.8683 32.8002 26.6349 32.2132 26.6349C31.6262 26.6349 31.0633 26.8683 30.6483 27.2836C30.2332 27.6989 30 28.2622 30 28.8495V37.7854C30 38.3727 30.2332 38.9361 30.6483 39.3514C31.0633 39.7667 31.6262 40 32.2132 40H41.1437C41.7307 40 42.2936 39.7667 42.7086 39.3514C43.1237 38.9361 43.3569 38.3727 43.3569 37.7854C43.3569 37.1981 43.1237 36.6348 42.7086 36.2195C42.2936 35.8042 41.7307 35.5708 41.1437 35.5708H37.5583L39.7715 33.3562L40.6124 32.5147L44.4635 28.6613L44.8176 28.3069L46.5218 26.6017H54.5337C54.9219 26.6082 55.3045 26.5086 55.6403 26.3138C55.8256 26.2255 55.994 26.1056 56.1382 25.9595L60.6643 21.4196L63.9178 18.1641L65.3564 16.7247C65.6641 16.415 65.8733 16.0212 65.958 15.5928C66.0426 15.1645 65.9988 14.7206 65.8321 14.3171C65.6653 13.9136 65.383 13.5684 65.0208 13.3249C64.6585 13.0814 64.2325 12.9506 63.7961 12.9487H57.0788V6.22744C57.0814 5.78757 56.9531 5.35694 56.7101 4.99038C56.467 4.62382 56.1204 4.33798 55.7144 4.16931C55.3083 4.00063 54.8614 3.95674 54.4304 4.04326C53.9993 4.12978 53.6039 4.34278 53.2943 4.6551L51.8778 6.10566L48.6244 9.3722L44.043 13.8567ZM52.409 11.7418L52.6082 11.5314V14.2L47.8054 19.0057V16.3371L50.738 13.4138L52.409 11.7418ZM58.4179 17.3447L56.5588 19.205L53.6262 22.1393H50.9594L52.3316 20.7663L53.6927 19.4043L55.751 17.3447H58.429H58.4179Z" fill="black"/>
</svg>
