<svg width="70" height="70" viewBox="0 0 70 70" fill="none" xmlns="http://www.w3.org/2000/svg">
<path d="M55.2349 31.5419V12.6666C55.2349 12.6098 55.2349 12.553 55.2349 12.5076C55.0766 9.021 49.9641 7.77169 48.2561 7.35148C39.5174 5.54951 30.5052 5.54951 21.7664 7.35148C20.0359 7.77169 14.7763 9.05509 14.7763 12.6666V14.8245C14.772 14.8431 14.772 14.8625 14.7763 14.8812V31.485C14.264 31.5982 13.8067 31.8866 13.4828 32.3009C13.1588 32.7153 12.9884 33.2298 13.0006 33.7564V45.1134C12.9884 45.64 13.1588 46.1546 13.4828 46.5689C13.8067 46.9833 14.264 47.2717 14.7763 47.3848V57.3335C14.7763 60.9337 20.0359 62.2171 21.7551 62.6373C30.4923 64.4542 39.5076 64.4542 48.2448 62.6373C49.9754 62.2171 55.2349 60.9337 55.2349 57.3335V47.3734C55.7337 47.2605 56.1798 46.9813 56.5002 46.5811C56.8206 46.181 56.9965 45.6837 56.9993 45.1703V33.8133C57.0121 33.2882 56.8433 32.7749 56.5216 32.3608C56.1999 31.9467 55.7452 31.6573 55.2349 31.5419ZM21.7551 20.253C30.4939 22.055 39.5061 22.055 48.2448 20.253C49.0798 20.0581 49.9032 19.8154 50.7106 19.5261V31.485H46.8196L43.8449 26.3177C43.6466 25.9728 43.3615 25.6862 43.018 25.4869C42.6746 25.2875 42.2849 25.1824 41.8882 25.182H28.1231C27.7245 25.1804 27.3325 25.2845 26.9869 25.484C26.6413 25.6834 26.3543 25.9711 26.155 26.3177L23.1916 31.485H19.3006V19.5261C20.1044 19.8151 20.9239 20.0578 21.7551 20.253ZM18.1696 42.8193H17.5249V36.0051H20.5788L19.278 38.2765C19.0795 38.6218 18.9749 39.0135 18.9749 39.4122C18.9749 39.8109 19.0795 40.2026 19.278 40.5479L20.5788 42.8193H18.1696ZM23.8249 39.4122L29.4012 29.7134H40.5536L46.1297 39.4122L40.5536 49.1111H29.4012L23.8249 39.4122ZM50.6993 38.2765L49.4099 36.0051H52.4525V42.8193H49.4212L50.7106 40.5479C50.9088 40.2049 51.014 39.8159 51.016 39.4194C51.018 39.0229 50.9167 38.6328 50.7219 38.2879L50.6993 38.2765ZM34.9773 10.5315C42.7026 10.5315 47.8602 11.6672 49.9301 12.6439L49.7719 12.7233L49.5909 12.8029L49.2063 12.9505H49.048C48.6408 13.0982 48.1883 13.2344 47.668 13.3707L47.4644 13.4274L46.8536 13.5751L46.5708 13.6433L45.96 13.7682L45.6321 13.8363L44.9535 13.95L44.6254 14.0067L43.7658 14.1429H43.5621L42.4311 14.2906H42.2049L41.2096 14.3929H40.7797L39.9201 14.461H39.4112H38.5289H38.0087H37.0133H36.5382H33.4957H33.0093H32.0366H31.4937H30.6454H30.1025L29.322 14.4041H28.7904L28.0891 14.3247C27.2295 14.2338 26.4264 14.1316 25.6799 14.018H25.5329L24.6732 13.8704C23.119 13.6221 21.6 13.1874 20.1489 12.5757C22.1283 11.7239 27.286 10.5429 35 10.5429L34.9773 10.5315ZM34.9773 59.3665C25.9966 59.3665 20.4882 57.7538 19.278 56.8111V47.3507H23.169L26.1324 52.5182C26.3317 52.8648 26.6187 53.1524 26.9643 53.3518C27.3099 53.5512 27.7018 53.6555 28.1004 53.6539H41.8655C42.2622 53.6535 42.6519 53.5484 42.9954 53.349C43.3388 53.1497 43.6241 52.8631 43.8224 52.5182L46.7971 47.3507H50.688V56.8111C49.5003 57.7651 43.992 59.3778 35 59.3778L34.9773 59.3665Z" fill="black"/>
</svg>
