<svg width="70" height="70" viewBox="0 0 70 70" fill="none" xmlns="http://www.w3.org/2000/svg">
<path d="M47.6701 12.68C45.105 12.6805 42.5849 13.354 40.3616 14.6332C38.1383 15.9125 36.2896 17.7527 35 19.97C33.3804 17.1787 30.8849 14.9998 27.9007 13.7712C24.9164 12.5427 21.6101 12.3333 18.4947 13.1754C15.3792 14.0175 12.6288 15.864 10.6698 18.4287C8.71087 20.9934 7.65291 24.1328 7.66007 27.36C7.66007 46.25 32.81 63.47 33.88 64.19C34.2095 64.4159 34.6006 64.5347 35 64.53C35.3741 64.5286 35.7408 64.4249 36.0601 64.23C37.1301 63.56 62.34 47.54 62.34 27.36C62.3374 23.4692 60.7912 19.7383 58.0409 16.9861C55.2906 14.234 51.5609 12.6853 47.6701 12.68ZM35.0301 60.11C30.3001 56.64 11.6601 42.11 11.6601 27.36C11.6601 25.9588 11.936 24.5713 12.4722 23.2768C13.0084 21.9823 13.7944 20.806 14.7852 19.8152C15.776 18.8244 16.9523 18.0384 18.2469 17.5022C19.5414 16.966 20.9288 16.69 22.33 16.69C23.7312 16.69 25.1187 16.966 26.4132 17.5022C27.7078 18.0384 28.8841 18.8244 29.8749 19.8152C30.8657 20.806 31.6516 21.9823 32.1878 23.2768C32.724 24.5713 33 25.9588 33 27.36C33 27.8905 33.2108 28.3992 33.5859 28.7742C33.9609 29.1493 34.4696 29.36 35 29.36C35.5305 29.36 36.0391 29.1493 36.4142 28.7742C36.7893 28.3992 37 27.8905 37 27.36C37 24.5302 38.1241 21.8162 40.1252 19.8152C42.1262 17.8142 44.8402 16.69 47.6701 16.69C50.4999 16.69 53.2139 17.8142 55.2149 19.8152C57.2159 21.8162 58.34 24.5302 58.34 27.36C58.34 43.09 39.7901 56.84 35.0301 60.11Z" fill="#00A082"/>
<path d="M41.92 38.74H37V33.8099C37 33.2795 36.7893 32.7708 36.4142 32.3958C36.0391 32.0207 35.5304 31.8099 35 31.8099C34.4696 31.8099 33.9609 32.0207 33.5858 32.3958C33.2107 32.7708 33 33.2795 33 33.8099V38.74H28.08C27.5495 38.74 27.0408 38.9507 26.6658 39.3257C26.2907 39.7008 26.08 40.2096 26.08 40.74C26.08 41.2704 26.2907 41.7791 26.6658 42.1542C27.0408 42.5292 27.5495 42.74 28.08 42.74H33V47.66C33 48.1904 33.2107 48.6991 33.5858 49.0742C33.9609 49.4492 34.4696 49.66 35 49.66C35.5304 49.66 36.0391 49.4492 36.4142 49.0742C36.7893 48.6991 37 48.1904 37 47.66V42.74H41.92C42.4505 42.74 42.9592 42.5292 43.3342 42.1542C43.7093 41.7791 43.92 41.2704 43.92 40.74C43.92 40.2096 43.7093 39.7008 43.3342 39.3257C42.9592 38.9507 42.4505 38.74 41.92 38.74Z" fill="#00A082"/>
</svg>
