<svg width="24" height="17" viewBox="0 0 24 17" fill="none" xmlns="http://www.w3.org/2000/svg">
<g clip-path="url(#clip0_95_376)">
<path d="M22.7763 2.97753C22.5395 2.03371 21.7697 1.26685 20.7632 0.97191C18.9868 0.5 12 0.5 12 0.5C12 0.5 4.95395 0.5 3.17763 0.97191C2.23026 1.20787 1.46053 1.97472 1.22368 2.97753C0.75 4.74719 0.75 8.40449 0.75 8.40449C0.75 8.40449 0.75 12.0618 1.22368 13.8315C1.46053 14.7753 2.23026 15.5421 3.23684 15.8371C5.01316 16.309 12 16.309 12 16.309C12 16.309 19.0461 16.309 20.7632 15.8371C21.7105 15.6011 22.4803 14.8343 22.7763 13.8315C23.25 12.0618 23.25 8.40449 23.25 8.40449C23.25 8.40449 23.25 4.74719 22.7763 2.97753Z" fill="black"/>
<path d="M9.69078 11.7078V5.04211L15.5526 8.40447L9.69078 11.7078Z" fill="white"/>
</g>
<defs>
<clipPath id="clip0_95_376">
<rect width="22.5" height="15.75" fill="white" transform="translate(0.75 0.5)"/>
</clipPath>
</defs>
</svg>
