<svg width="70" height="70" viewBox="0 0 70 70" fill="none" xmlns="http://www.w3.org/2000/svg">
<path d="M22.9825 9.1236L18.7739 16.218H10.2392C9.82688 16.2185 9.422 16.3244 9.06504 16.5252C8.70808 16.726 8.4116 17.0147 8.20545 17.3623L3.31499 25.6125C3.10863 25.9604 3 26.355 3 26.7567C3 27.1584 3.10863 27.5531 3.31499 27.901L7.5119 34.9954L3.31499 42.0783C3.10863 42.4262 3 42.8209 3 43.2226C3 43.6243 3.10863 44.019 3.31499 44.3669L8.20545 52.617C8.4116 52.9646 8.70808 53.2532 9.06504 53.4541C9.422 53.6549 9.82688 53.7609 10.2392 53.7613H18.7739L22.9825 60.8557C23.1886 61.2033 23.4851 61.4919 23.842 61.6928C24.199 61.8936 24.604 61.9996 25.0163 62H30.8942V57.423H26.427L22.9002 51.4728L26.427 45.534H31V40.957H26.427L22.9002 35.0297L26.427 29.0681H30.9882V24.491H26.427L22.9002 18.5409L26.427 12.5793H30.9882V8.00224H25.1103C24.6845 7.98389 24.2616 8.0785 23.8868 8.27602C23.512 8.47354 23.1994 8.76652 22.9825 9.1236ZM11.5911 20.7951H18.6446L22.1714 26.7567L18.6446 32.684H11.5323L8.00555 26.7567L11.5911 20.7951ZM8.06439 43.2226L11.5911 37.2953H18.7035L22.2302 43.2226L18.7035 49.1842H11.65L8.06439 43.2226Z" fill="#00A082"/>
<path d="M61.6981 30.8712C61.6981 30.7911 61.6981 30.7108 61.6981 30.6192C62.3827 26.5306 57.695 22.2702 55.8965 20.8157C56.1803 20.2373 56.3271 19.6029 56.3258 18.9603V15.1007C56.3319 15.0245 56.3319 14.9479 56.3258 14.8717C56.0821 10.1188 48.2036 8 40.8935 8C40.5863 8.00211 40.2826 8.06444 40 8.18328V12.3979C40.2826 12.5167 40.5863 12.579 40.8935 12.5811C47.2521 12.5811 50.9304 14.2991 51.6382 15.1351L51.5452 15.2267L51.4176 15.3413C50.0948 16.4865 46.2194 17.7234 40.8935 17.7234C40.5857 17.7198 40.2808 17.7824 40 17.9067V25.9236C40.2808 26.0479 40.5857 26.1104 40.8935 26.1068C44.8765 26.2211 48.8368 25.4745 52.4968 23.9194L52.6476 24.0568C54.168 25.2317 55.4881 26.6391 56.5579 28.2256C56.4379 28.4271 56.3553 28.6482 56.3142 28.8785C56.051 28.7369 55.7989 28.576 55.5599 28.3974C55.2135 28.1443 54.8026 27.9914 54.3731 27.9558C53.9436 27.9203 53.5126 28.0035 53.1284 28.1961C52.7441 28.3887 52.4218 28.6831 52.1975 29.0464C51.9732 29.4096 51.8558 29.8273 51.8586 30.2527C51.8586 30.7995 51.6385 31.3239 51.2468 31.7105C50.8551 32.0971 50.3238 32.3143 49.7699 32.3143C49.216 32.3143 48.6848 32.0971 48.2931 31.7105C47.9015 31.3239 47.6814 30.7995 47.6814 30.2527C47.6824 29.7959 47.5451 29.3492 47.2869 28.97C47.0093 28.5622 46.606 28.2534 46.1369 28.089C45.6678 27.9247 45.1577 27.9135 44.6817 28.0573C44.2057 28.2011 43.7891 28.4922 43.4935 28.8875C43.1979 29.2828 43.0389 29.7614 43.0401 30.2527C43.0401 31.5011 42.7499 33.5626 40.9514 33.5626C40.6437 33.559 40.3388 33.6216 40.0579 33.7459V37.9605C40.3388 38.0848 40.6437 38.1473 40.9514 38.1437C41.9271 38.1677 42.8944 37.9609 43.7725 37.5405C44.6506 37.12 45.4139 36.4983 45.9988 35.7272C46.7615 36.2387 47.6228 36.5897 48.5288 36.7585C49.4349 36.9272 50.3664 36.91 51.2655 36.7081C52.1646 36.5061 53.0119 36.1236 53.7547 35.5844C54.4975 35.0453 55.1199 34.3609 55.5832 33.5741C56.2877 33.843 57.0329 33.994 57.7878 34.0207C59.2498 39.9762 58.0084 46.6188 54.0864 53.7195C53.4582 54.8457 52.5337 55.7837 51.4105 56.4347C50.2874 57.0858 49.0071 57.4257 47.7046 57.4187H40.9514C40.6437 57.4152 40.3388 57.4777 40.0579 57.602V61.8166C40.3388 61.9408 40.6437 62.0034 40.9514 61.9999H47.7046C49.8407 62.0039 51.9383 61.439 53.7762 60.3646C55.6142 59.2903 57.1244 57.7463 58.1476 55.8955C64.1001 45.1299 63.6359 36.6434 61.6981 30.8712Z" fill="#00A082"/>
<path d="M35.5 3C34.837 3 34.2011 3.24315 33.7323 3.6759C33.2634 4.10865 33 4.69555 33 5.30755V64.6924C33 65.3045 33.2634 65.8913 33.7323 66.3241C34.2011 66.7569 34.837 67 35.5 67C36.163 67 36.799 66.7569 37.2679 66.3241C37.7367 65.8913 38 65.3045 38 64.6924V5.30755C38 4.69555 37.7367 4.10865 37.2679 3.6759C36.799 3.24315 36.163 3 35.5 3Z" fill="#00A082"/>
</svg>
