<svg width="19" height="18" viewBox="0 0 19 18" fill="none" xmlns="http://www.w3.org/2000/svg">
<path d="M9.5 1.64885C11.9046 1.64885 12.1794 1.64885 13.1412 1.71756C14.0344 1.78626 14.5153 1.92366 14.7901 1.99237C15.2023 2.12977 15.4771 2.33588 15.8206 2.67939C16.1641 3.0229 16.3015 3.29771 16.5076 3.70992C16.645 4.05343 16.7824 4.46565 16.7824 5.35878C16.8511 6.32061 16.8511 6.59542 16.8511 9C16.8511 11.4046 16.8511 11.6794 16.7824 12.6412C16.7137 13.5344 16.5763 14.0153 16.5076 14.2901C16.3702 14.7023 16.1641 14.9771 15.8206 15.3206C15.4771 15.6641 15.2023 15.8015 14.7901 16.0076C14.4466 16.145 14.0344 16.2824 13.1412 16.2824C12.1107 16.2824 11.8359 16.2824 9.5 16.2824C7.09542 16.2824 6.82061 16.2824 5.85878 16.2137C4.96565 16.145 4.48473 16.0076 4.20992 15.9389C3.79771 15.8015 3.5229 15.5954 3.17939 15.2519C2.83588 14.9084 2.69847 14.6336 2.49237 14.2214C2.35496 13.8779 2.21756 13.4656 2.21756 12.5725C2.14885 11.6107 2.14886 11.3359 2.14886 8.9313C2.14886 6.52672 2.14885 6.25191 2.21756 5.29008C2.28626 4.39695 2.42367 3.91603 2.49237 3.64122C2.62977 3.22901 2.83588 2.9542 3.17939 2.61069C3.5229 2.26718 3.79771 2.12977 4.20992 1.92366C4.55344 1.78626 4.96565 1.64885 5.85878 1.64885C6.82061 1.64885 7.09542 1.64885 9.5 1.64885ZM9.5 0C7.09542 0 6.75191 1.53562e-08 5.79008 0.0687023C4.82824 0.137405 4.20992 0.274809 3.5916 0.480916C2.97328 0.687023 2.49237 1.03053 2.01145 1.51145C1.53053 1.99237 1.18702 2.47328 0.980917 3.0916C0.77481 3.64122 0.637404 4.32824 0.568701 5.29008C0.499999 6.25191 0.5 6.52672 0.5 9C0.5 11.4046 0.499999 11.7481 0.568701 12.7099C0.637404 13.6718 0.77481 14.2901 0.980917 14.9084C1.18702 15.5267 1.53053 16.0076 2.01145 16.4885C2.49237 16.9695 2.97328 17.313 3.5916 17.5191C4.14122 17.7252 4.82824 17.8626 5.79008 17.9313C6.75191 18 7.02672 18 9.5 18C11.9046 18 12.2481 18 13.2099 17.9313C14.1718 17.8626 14.7901 17.7252 15.4084 17.5191C16.0267 17.313 16.5076 16.9695 16.9885 16.4885C17.4695 16.0076 17.813 15.5267 18.0191 14.9084C18.2252 14.3588 18.3626 13.6718 18.4313 12.7099C18.5 11.7481 18.5 11.4733 18.5 9C18.5 6.59542 18.5 6.25191 18.4313 5.29008C18.3626 4.32824 18.2252 3.70992 18.0191 3.0916C17.6756 2.54198 17.4008 1.99237 16.9198 1.51145C16.4389 1.03053 15.958 0.687023 15.3397 0.480916C14.7901 0.274809 14.1031 0.137405 13.1412 0.0687023C12.1794 1.53562e-08 11.9046 0 9.5 0Z" fill="black"/>
<path d="M9.50008 4.39697C6.9581 4.39697 4.89703 6.45804 4.89703 9.00003C4.89703 11.542 6.9581 13.6031 9.50008 13.6031C12.0421 13.6031 14.1031 11.542 14.1031 9.00003C14.1031 6.45804 11.9734 4.39697 9.50008 4.39697ZM9.50008 11.9542C7.85123 11.9542 6.54589 10.6489 6.54589 9.00003C6.54589 7.35117 7.85123 6.04583 9.50008 6.04583C11.1489 6.04583 12.4543 7.35117 12.4543 9.00003C12.4543 10.5802 11.0802 11.9542 9.50008 11.9542Z" fill="black"/>
<path d="M15.3396 4.19079C15.3396 4.80911 14.8587 5.29003 14.2404 5.29003C13.6221 5.29003 13.1412 4.80911 13.1412 4.19079C13.1412 3.57247 13.6221 3.09155 14.2404 3.09155C14.8587 3.09155 15.3396 3.57247 15.3396 4.19079Z" fill="black"/>
</svg>
