<svg width="19" height="18" viewBox="0 0 19 18" fill="none" xmlns="http://www.w3.org/2000/svg">
<path fill-rule="evenodd" clip-rule="evenodd" d="M18.5 8.55173C18.3621 3.7931 14.5 0 9.67242 0C4.9138 0 1.05172 3.72414 0.844828 8.34483C0.844828 8.48276 0.844828 8.62069 0.844828 8.75862C0.844828 10.4138 1.32759 11.931 2.08621 13.2414L0.5 17.931L5.39655 16.4138C6.63793 17.1035 8.08621 17.5172 9.67242 17.5172C14.569 17.5172 18.5 13.5862 18.5 8.75862C18.5 8.68966 18.5 8.62069 18.5 8.55173ZM9.67242 16.1379C8.15518 16.1379 6.77586 15.7241 5.60345 14.8966L2.77587 15.7931L3.67241 13.0345C2.77586 11.7931 2.2931 10.3448 2.2931 8.75862C2.2931 8.55173 2.2931 8.27586 2.36207 8.06897C2.7069 4.34483 5.87931 1.44828 9.74138 1.44828C13.6034 1.44828 16.8448 4.41379 17.1207 8.2069C17.1207 8.4138 17.1207 8.62069 17.1207 8.75862C17.1207 12.8276 13.8104 16.1379 9.67242 16.1379Z" fill="black"/>
<path fill-rule="evenodd" clip-rule="evenodd" d="M13.7413 10.5518C13.5344 10.4139 12.4309 9.93114 12.293 9.86217C12.0861 9.79321 11.9482 9.72424 11.8102 10.0001C11.6723 10.207 11.2585 10.6898 11.1206 10.8277C10.9826 10.9656 10.8447 10.9656 10.6378 10.8967C10.4309 10.7587 9.74126 10.5518 8.91367 9.86217C8.29298 9.31045 7.81022 8.62079 7.74126 8.4139C7.60333 8.207 7.74125 8.06907 7.81022 8.0001C7.87918 7.93114 8.01711 7.72424 8.15504 7.65527C8.15504 7.58631 8.22401 7.58631 8.22401 7.58631C8.29298 7.51734 8.29298 7.44838 8.36194 7.31045C8.43091 7.17251 8.43091 7.03458 8.36194 6.96562C8.29298 6.82769 7.87918 5.7932 7.67229 5.37941C7.46539 4.96562 7.32746 5.03458 7.18953 5.03458C7.0516 5.03458 6.91367 5.03458 6.77573 5.03458C6.6378 5.03458 6.36195 5.10355 6.22402 5.31045C6.01712 5.51734 5.46539 6.06907 5.46539 7.10355C5.46539 7.37941 5.53436 7.58631 5.60332 7.86217C5.81022 8.62079 6.29298 9.24148 6.36195 9.37941C6.49988 9.51734 7.87919 11.7242 10.0171 12.6208C12.224 13.4484 12.224 13.1725 12.6378 13.1725C13.0516 13.1725 13.9482 12.6898 14.0861 12.138C14.293 11.6553 14.293 11.2415 14.224 11.1036C14.0861 10.6898 13.9482 10.6208 13.7413 10.5518Z" fill="black"/>
</svg>
