<svg width="70" height="70" viewBox="0 0 70 70" fill="none" xmlns="http://www.w3.org/2000/svg">
<path d="M17.25 43.37C17.5 43.9 17.77 44.43 18.07 44.93C19.7684 47.8219 22.1781 50.2316 25.07 51.93C25.58 52.24 26.07 52.51 26.63 52.77" stroke="#00A082" stroke-width="4" stroke-linecap="round" stroke-linejoin="round"/>
<path d="M43.35 17.26C43.89 17.51 44.41 17.78 44.92 18.08C47.8125 19.7777 50.2223 22.1875 51.92 25.08C52.2242 25.5849 52.5013 26.1056 52.75 26.64" stroke="#00A082" stroke-width="4" stroke-linecap="round" stroke-linejoin="round"/>
<path d="M52.75 43.37C52.5 43.9 52.23 44.43 51.93 44.93C50.2316 47.8219 47.8219 50.2316 44.93 51.93C44.42 52.24 43.93 52.51 43.37 52.77" stroke="#00A082" stroke-width="4" stroke-linecap="round" stroke-linejoin="round"/>
<path d="M17.25 26.64C17.4987 26.1056 17.7757 25.5849 18.08 25.08C19.7777 22.1875 22.1875 19.7777 25.08 18.08C25.59 17.78 26.08 17.51 26.65 17.26" stroke="#00A082" stroke-width="4" stroke-linecap="round" stroke-linejoin="round"/>
<path d="M35 25.13C40.799 25.13 45.5 20.429 45.5 14.63C45.5 8.83102 40.799 4.13 35 4.13C29.201 4.13 24.5 8.83102 24.5 14.63C24.5 20.429 29.201 25.13 35 25.13Z" stroke="white" stroke-width="4" stroke-linecap="round" stroke-linejoin="round"/>
<path d="M35 65.87C40.799 65.87 45.5 61.169 45.5 55.37C45.5 49.571 40.799 44.87 35 44.87C29.201 44.87 24.5 49.571 24.5 55.37C24.5 61.169 29.201 65.87 35 65.87Z" stroke="white" stroke-width="4" stroke-linecap="round" stroke-linejoin="round"/>
<path d="M14.63 45.5C20.429 45.5 25.13 40.799 25.13 35C25.13 29.201 20.429 24.5 14.63 24.5C8.83101 24.5 4.13 29.201 4.13 35C4.13 40.799 8.83101 45.5 14.63 45.5Z" stroke="white" stroke-width="4" stroke-linecap="round" stroke-linejoin="round"/>
<path d="M55.37 45.5C61.169 45.5 65.87 40.799 65.87 35C65.87 29.201 61.169 24.5 55.37 24.5C49.571 24.5 44.87 29.201 44.87 35C44.87 40.799 49.571 45.5 55.37 45.5Z" stroke="white" stroke-width="4" stroke-linecap="round" stroke-linejoin="round"/>
<path d="M35 23.38C39.8325 23.38 43.75 19.4625 43.75 14.63C43.75 9.79751 39.8325 5.88 35 5.88C30.1675 5.88 26.25 9.79751 26.25 14.63C26.25 19.4625 30.1675 23.38 35 23.38Z" stroke="#00A082" stroke-width="4" stroke-linecap="round" stroke-linejoin="round"/>
<path d="M35 64.12C39.8325 64.12 43.75 60.2025 43.75 55.37C43.75 50.5375 39.8325 46.62 35 46.62C30.1675 46.62 26.25 50.5375 26.25 55.37C26.25 60.2025 30.1675 64.12 35 64.12Z" stroke="#00A082" stroke-width="4" stroke-linecap="round" stroke-linejoin="round"/>
<path d="M14.63 43.75C19.4625 43.75 23.38 39.8325 23.38 35C23.38 30.1675 19.4625 26.25 14.63 26.25C9.79751 26.25 5.88 30.1675 5.88 35C5.88 39.8325 9.79751 43.75 14.63 43.75Z" stroke="#00A082" stroke-width="4" stroke-linecap="round" stroke-linejoin="round"/>
<path d="M55.37 43.75C60.2025 43.75 64.12 39.8325 64.12 35C64.12 30.1675 60.2025 26.25 55.37 26.25C50.5375 26.25 46.62 30.1675 46.62 35C46.62 39.8325 50.5375 43.75 55.37 43.75Z" stroke="#00A082" stroke-width="4" stroke-linecap="round" stroke-linejoin="round"/>
</svg>
