<svg width="70" height="70" viewBox="0 0 70 70" fill="none" xmlns="http://www.w3.org/2000/svg">
<path d="M34.9999 5.19995C29.1061 5.19995 23.3446 6.9477 18.444 10.2222C13.5435 13.4966 9.72382 18.1508 7.46833 23.596C5.21284 29.0412 4.62269 35.033 5.77253 40.8137C6.92237 46.5943 9.76056 51.9041 13.9282 56.0717C18.0958 60.2393 23.4057 63.0775 29.1863 64.2274C34.967 65.3772 40.9588 64.787 46.404 62.5316C51.8492 60.2761 56.5033 56.4566 59.7778 51.556C63.0522 46.6554 64.8 40.8938 64.8 34.9999C64.7894 27.0997 61.6464 19.5262 56.0601 13.9399C50.4738 8.35359 42.9001 5.21053 34.9999 5.19995ZM34.9999 60.8C29.8972 60.8 24.9091 59.2868 20.6663 56.4519C16.4235 53.617 13.1166 49.5875 11.1639 44.8732C9.21114 40.1588 8.70025 34.9713 9.69574 29.9666C10.6912 24.9619 13.1485 20.3648 16.7567 16.7566C20.3649 13.1484 24.9619 10.6912 29.9666 9.69568C34.9713 8.70018 40.1589 9.21114 44.8732 11.1639C49.5876 13.1166 53.6169 16.4235 56.4518 20.6663C59.2868 24.909 60.8 29.8972 60.8 34.9999C60.7921 41.8401 58.0713 48.3978 53.2346 53.2346C48.3978 58.0713 41.8401 60.792 34.9999 60.8Z" fill="#00A082"/>
<path d="M56.96 28.67C56.848 28.3122 56.6376 27.993 56.3529 27.749C56.0683 27.505 55.7206 27.346 55.3499 27.29L42.43 25.29L36.7399 13.5099C36.5771 13.173 36.3232 12.8885 36.0067 12.6887C35.6903 12.489 35.3242 12.382 34.95 12.3799C34.5772 12.3773 34.2111 12.479 33.8931 12.6733C33.575 12.8677 33.3177 13.1471 33.1499 13.48L27.2699 25.16L14.2699 26.9399C13.8903 26.986 13.5319 27.14 13.2371 27.3837C12.9423 27.6273 12.7235 27.9503 12.6067 28.3144C12.4899 28.6786 12.4798 29.0685 12.5779 29.4382C12.676 29.8078 12.878 30.1416 13.1599 30.4L22.45 39.61L20.1599 52.4C20.0864 52.773 20.1207 53.1593 20.2588 53.5135C20.397 53.8677 20.6333 54.1752 20.94 54.4C21.2395 54.6209 21.5947 54.7538 21.9657 54.7839C22.3367 54.8139 22.7088 54.7398 23.0399 54.5699L34.6699 48.5699L46.19 54.7499C46.5193 54.927 46.8917 55.0083 47.2649 54.9844C47.6381 54.9605 47.9971 54.8324 48.3012 54.6148C48.6053 54.3971 48.8422 54.0986 48.9851 53.753C49.1281 53.4075 49.1713 53.0288 49.1099 52.66L47.0099 39.7599L56.45 30.6999C56.7142 30.4417 56.9017 30.1153 56.9917 29.757C57.0817 29.3987 57.0708 29.0224 56.96 28.67ZM43.47 37.61C43.2367 37.8338 43.0612 38.1108 42.9584 38.4173C42.8556 38.7239 42.8287 39.0507 42.8799 39.3699L44.4999 49.3199L35.6199 44.5599C35.3132 44.3941 34.9685 44.3114 34.6199 44.3199C34.3032 44.3179 33.9908 44.3934 33.71 44.54L24.71 49.16L26.4899 39.24C26.5483 38.9201 26.5278 38.5908 26.4302 38.2806C26.3326 37.9705 26.161 37.6888 25.93 37.4599L18.7799 30.3699L28.7799 28.9999C29.102 28.9569 29.4086 28.8361 29.6735 28.6479C29.9383 28.4598 30.1534 28.2099 30.3 27.92L34.83 18.92L39.21 27.9999C39.3522 28.2911 39.563 28.5434 39.8242 28.735C40.0855 28.9266 40.3896 29.0518 40.71 29.1L50.71 30.6299L43.47 37.61Z" fill="#00A082"/>
</svg>
