<svg width="19" height="18" viewBox="0 0 19 18" fill="none" xmlns="http://www.w3.org/2000/svg">
<g clip-path="url(#clip0_95_385)">
<path d="M1.3477 8.96503C1.34686 10.0677 1.56333 11.1598 1.98474 12.1788C2.40614 13.1977 3.02421 14.1237 3.80363 14.9037C4.58306 15.6838 5.50856 16.3025 6.52724 16.7247C7.54591 17.1469 8.63779 17.3642 9.74048 17.3642C10.2695 17.3643 10.7974 17.3153 11.3173 17.2179C12.2598 17.7859 13.366 18.0203 14.4579 17.8833C15.5498 17.7463 16.5638 17.2459 17.3367 16.4626C18.1097 15.6794 18.5967 14.6589 18.7192 13.5653C18.8418 12.4717 18.5929 11.3687 18.0125 10.4338C18.0969 9.94874 18.1395 9.45735 18.1396 8.96503C18.1396 6.73744 17.2547 4.60108 15.6796 3.02593C14.1044 1.45078 11.9681 0.565862 9.74048 0.565862C9.22202 0.566044 8.70473 0.615013 8.19545 0.712107C7.25455 0.141533 6.14907 -0.0958943 5.05687 0.0380444C3.96468 0.171983 2.9493 0.669497 2.17415 1.45051C1.39901 2.23153 0.90919 3.25063 0.783498 4.3438C0.657806 5.43698 0.903555 6.54066 1.48121 7.47722C1.39151 7.96806 1.34682 8.46606 1.3477 8.96503ZM9.83585 3.00106C12.5444 3.16001 14.1276 4.34899 14.2866 5.46167C14.3083 5.63384 14.2904 5.8087 14.2341 5.97287C14.1779 6.13705 14.0849 6.2862 13.9622 6.40891C13.8395 6.53162 13.6903 6.62465 13.5262 6.68087C13.362 6.7371 13.1871 6.75503 13.0149 6.7333C11.7942 6.7333 11.667 5.10561 9.55611 5.10561C8.60238 5.10561 7.80124 5.49982 7.80124 6.37725C7.80124 8.17025 14.56 7.1275 14.56 11.0759C14.56 13.3522 12.7415 14.8463 10.0202 14.8463C7.62957 14.8463 5.22618 13.7591 5.2389 11.8898C5.22848 11.618 5.3253 11.3531 5.50847 11.152C5.69165 10.951 5.94651 10.8301 6.21806 10.8153C7.62958 10.8153 7.61686 12.9071 9.85494 12.9071C11.4318 12.9071 11.9658 12.0487 11.9658 11.4511C11.9658 9.2893 5.16895 10.6118 5.16895 6.54891C5.18802 4.34898 6.99374 2.83574 9.83585 3.00106Z" fill="black"/>
</g>
<defs>
<clipPath id="clip0_95_385">
<rect width="18" height="17.9173" fill="white" transform="translate(0.75)"/>
</clipPath>
</defs>
</svg>
