<svg width="70" height="70" viewBox="0 0 70 70" fill="none" xmlns="http://www.w3.org/2000/svg">
<path d="M60.8003 31.2507H59.6665C59.3669 27.6334 58.1129 24.1605 56.0325 21.187C53.952 18.2134 51.1197 15.8459 47.8252 14.3263C44.5307 12.8068 40.892 12.1897 37.281 12.5382C33.6701 12.8867 30.2165 14.1883 27.2729 16.3098L26.1391 10.8303C26.0218 10.2391 25.6746 9.71869 25.1738 9.3836C24.6731 9.04852 24.0597 8.92614 23.4688 9.04348C22.8779 9.16083 22.3579 9.50824 22.023 10.0093C21.6881 10.5103 21.5658 11.124 21.6831 11.7152L23.0323 18.522C17.4538 19.5317 13.0319 24.7162 12.1929 31.2734H9.26767C8.66624 31.2734 8.08935 31.5125 7.66408 31.938C7.23881 32.3635 7 32.9406 7 33.5424C7.14748 40.875 10.1622 47.8574 15.3972 52.991C20.6321 58.1245 27.67 61 34.9999 61C42.3299 61 49.3677 58.1245 54.6027 52.991C59.8377 47.8574 62.8524 40.875 62.9999 33.5424C63.0061 32.9483 62.7792 32.3755 62.3679 31.947C61.9566 31.5185 61.3938 31.2685 60.8003 31.2507ZM39.2575 16.9791C43.1949 16.9866 46.9914 18.4467 49.9201 21.0798C52.8489 23.713 54.7042 27.3343 55.1311 31.2507H53.0222C52.6002 27.8907 50.9685 24.7999 48.4326 22.5571C45.8968 20.3142 42.6307 19.0732 39.2461 19.0665C36.8165 19.0614 34.4293 19.7036 32.3298 20.9271L31.9896 20.6661C31.8762 20.5754 31.7629 20.5073 31.6495 20.4279L31.1279 20.0762L30.731 19.8493L30.4022 19.6565C33.0301 17.9107 36.1144 16.9794 39.2688 16.9791H39.2575ZM37.8969 31.2507C37.8969 30.9785 37.8175 30.7062 37.7721 30.4453C38.3989 30.0727 39.1426 29.9487 39.8562 30.0978C40.5699 30.2469 41.2018 30.6583 41.6272 31.2507H37.8969ZM46.514 31.2507C46.2692 30.1943 45.7963 29.2042 45.1284 28.3501C44.4606 27.496 43.6139 26.7985 42.6479 26.3066C41.6819 25.8147 40.62 25.5403 39.5368 25.5027C38.4536 25.4651 37.3752 25.6652 36.3775 26.0889C36.2641 25.862 36.1622 25.6351 36.0374 25.4195C35.9127 25.204 35.9807 25.3175 35.958 25.2721C35.7993 24.9772 35.6292 24.6822 35.4592 24.4099C36.6537 23.8743 37.9485 23.5997 39.2575 23.6044C41.4406 23.6068 43.5544 24.3722 45.2334 25.7683C46.9124 27.1645 48.0511 29.1037 48.4529 31.2507H46.514ZM25.0619 22.8443H25.6401C27.4412 23.0308 29.1133 23.8653 30.3456 25.1927L30.4703 25.3402C31.7343 26.7061 32.635 28.3679 33.0895 30.173C33.1689 30.5133 33.2255 30.8764 33.2822 31.2281H16.8189C17.6579 26.452 21.0368 22.8443 25.0732 22.8443H25.0619ZM14.3586 35.7886H58.4193C58.3626 36.3105 58.2718 36.821 58.1924 37.3315H11.9208C11.8414 36.821 11.7506 36.3105 11.7053 35.7886H14.3586ZM35.051 56.9918C30.2992 56.9848 25.6614 55.5355 21.7502 52.8355C17.839 50.1354 14.8386 46.3117 13.1453 41.8694H56.9793C55.2813 46.3108 52.2782 50.1331 48.3657 52.8327C44.4531 55.5323 39.815 56.9824 35.0624 56.9918H35.051Z" fill="black"/>
</svg>
