<svg width="70" height="70" viewBox="0 0 70 70" fill="none" xmlns="http://www.w3.org/2000/svg">
<path d="M62.8 27.98H60.18C59.615 25.9513 58.8022 23.9999 57.76 22.17L59.61 20.3199C59.7959 20.1342 59.9435 19.9136 60.0442 19.6708C60.1448 19.428 60.1966 19.1678 60.1966 18.905C60.1966 18.6421 60.1448 18.3819 60.0442 18.1391C59.9435 17.8963 59.7959 17.6757 59.61 17.4899L52.51 10.3799C52.3239 10.1928 52.1027 10.0443 51.859 9.94305C51.6153 9.84179 51.354 9.78977 51.0901 9.78998C50.5605 9.79221 50.0534 10.0044 49.68 10.3799L47.82 12.2399C45.9881 11.2019 44.0372 10.3893 42.01 9.81995V7.19995C42.01 6.66952 41.7992 6.16084 41.4242 5.78577C41.0491 5.41069 40.5404 5.19995 40.01 5.19995H30.01C29.4795 5.19995 28.9709 5.41069 28.5958 5.78577C28.2207 6.16084 28.01 6.66952 28.01 7.19995V9.82996C25.9859 10.3991 24.0384 11.2117 22.2101 12.2499L20.3401 10.3799C19.9667 10.0044 19.4596 9.79221 18.93 9.78998C18.4004 9.79221 17.8933 10.0044 17.52 10.3799L10.41 17.4899C10.2241 17.6757 10.0766 17.8963 9.97592 18.1391C9.87527 18.3819 9.82346 18.6421 9.82346 18.905C9.82346 19.1678 9.87527 19.428 9.97592 19.6708C10.0766 19.9136 10.2241 20.1342 10.41 20.3199L12.27 22.1799C11.2362 24.0092 10.427 25.9567 9.85995 27.98H7.22995C6.69952 27.98 6.19084 28.1907 5.81577 28.5657C5.44069 28.9408 5.22995 29.4495 5.22995 29.98V39.98C5.22995 40.2426 5.28178 40.5026 5.38229 40.7453C5.4828 40.988 5.63005 41.2085 5.81577 41.3942C6.00148 41.5799 6.22204 41.7272 6.46469 41.8277C6.70734 41.9282 6.96731 41.9799 7.22995 41.9799H9.84995C10.4242 44.0039 11.233 45.9538 12.26 47.79L10.4 49.66C10.214 49.8457 10.0666 50.0662 9.96591 50.309C9.86526 50.5518 9.81345 50.8122 9.81345 51.075C9.81345 51.3378 9.86526 51.5981 9.96591 51.8409C10.0666 52.0837 10.214 52.3042 10.4 52.4899L17.5 59.5899C17.8747 59.9624 18.3816 60.1716 18.91 60.1716C19.4384 60.1716 19.9453 59.9624 20.32 59.5899L22.19 57.7199C24.0156 58.7638 25.9638 59.5767 27.99 60.14V62.7599C27.99 63.2904 28.2007 63.7991 28.5758 64.1741C28.9508 64.5492 29.4595 64.7599 29.99 64.7599H39.99C40.5204 64.7599 41.0292 64.5492 41.4043 64.1741C41.7793 63.7991 41.99 63.2904 41.99 62.7599V60.15C44.0172 59.5806 45.9681 58.768 47.8 57.7299L49.66 59.5899C50.0347 59.9624 50.5417 60.1716 51.07 60.1716C51.5984 60.1716 52.1052 59.9624 52.4799 59.5899L59.58 52.4899C59.766 52.3042 59.9135 52.0837 60.0141 51.8409C60.1148 51.5981 60.1666 51.3378 60.1666 51.075C60.1666 50.8122 60.1148 50.5518 60.0141 50.309C59.9135 50.0662 59.766 49.8457 59.58 49.66L57.7201 47.8C58.7606 45.9657 59.5732 44.0112 60.14 41.9799H62.76C63.2904 41.9799 63.7991 41.7693 64.1742 41.3942C64.5492 41.0192 64.76 40.5104 64.76 39.98V29.98C64.7601 29.4564 64.5549 28.9537 64.1884 28.5797C63.822 28.2058 63.3235 27.9905 62.8 27.98ZM39.66 56.66C36.6684 57.2799 33.5816 57.2799 30.5901 56.66H30.44C25.4823 55.5995 21.0384 52.8704 17.8504 48.9283C14.6624 44.9862 12.9232 40.0698 12.9232 34.9999C12.9232 29.9301 14.6624 25.0137 17.8504 21.0717C21.0384 17.1296 25.4823 14.4005 30.44 13.34C36.1755 12.1258 42.1582 13.2327 47.0796 16.4186C52.0009 19.6046 55.46 24.6101 56.7 30.34C56.6954 30.3698 56.6954 30.4001 56.7 30.4299C57.9024 36.1595 56.7897 42.132 53.6048 47.0443C50.4199 51.9565 45.4215 55.4095 39.7 56.65L39.66 56.66Z" fill="black"/>
<path d="M46.7101 31.8199C44.8134 31.7961 42.9214 32.0145 41.08 32.47C41.3009 31.8776 41.4617 31.2645 41.56 30.64C42.12 26.92 40.39 23.02 36.41 19.04C36.2243 18.854 36.0036 18.7065 35.7608 18.6058C35.518 18.5052 35.2578 18.4534 34.995 18.4534C34.7321 18.4534 34.4719 18.5052 34.2291 18.6058C33.9863 18.7065 33.7658 18.854 33.58 19.04C29.58 23.04 27.87 26.92 28.43 30.64C28.5283 31.2645 28.6891 31.8776 28.91 32.47C27.0687 32.0145 25.1767 31.7961 23.28 31.8199C22.7496 31.8199 22.2409 32.0307 21.8658 32.4058C21.4907 32.7808 21.28 33.2895 21.28 33.8199C21.28 39.4499 22.8201 43.43 25.8401 45.67C27.6081 46.9242 29.7327 47.5764 31.9 47.53C32.29 47.53 32.66 47.5299 33 47.4799V52.19C33 52.7204 33.2107 53.2291 33.5858 53.6042C33.9609 53.9793 34.4695 54.19 35 54.19C35.5304 54.19 36.0392 53.9793 36.4143 53.6042C36.7893 53.2291 37 52.7204 37 52.19V47.4799C37.34 47.4799 37.7001 47.53 38.0901 47.53C40.2573 47.5764 42.3819 46.9242 44.15 45.67C47.15 43.43 48.7101 39.4499 48.7101 33.8199C48.7101 33.2895 48.4993 32.7808 48.1242 32.4058C47.7492 32.0307 47.2405 31.8199 46.7101 31.8199ZM35 23.4299C36.8313 25.6275 38.0656 28.5345 37.8683 31.4136C37.8352 31.8958 37.6813 32.3618 37.4209 32.7689C37.1604 33.176 36.8017 33.511 36.3778 33.743C35.9538 33.9751 35.4782 34.0967 34.995 34.0967C34.5117 34.0967 34.0362 33.9751 33.6123 33.743C33.1883 33.511 32.8297 33.176 32.5692 32.7689C32.3087 32.3618 32.1548 31.8958 32.1218 31.4136C31.9234 28.5198 33.1735 25.6071 35 23.39V23.4299ZM25.39 35.9299C28.2472 36.1864 31.1615 37.3646 33.0576 39.5488C33.3729 39.912 33.5918 40.3486 33.6943 40.8185C33.7968 41.2884 33.7796 41.7765 33.6443 42.238C33.5089 42.6995 33.2597 43.1195 32.9196 43.4595C32.5796 43.7996 32.1595 44.0488 31.698 44.1841C31.2365 44.3195 30.7484 44.3367 30.2785 44.2342C29.8087 44.1317 29.3721 43.9127 29.0089 43.5975C26.8247 41.7014 25.6464 38.7872 25.39 35.9299ZM41.79 42.43C40.3943 43.344 38.7063 43.7009 37.06 43.43C37.0227 43.1381 37.0026 42.8442 37 42.55V42.43C36.9514 41.1001 37.3375 39.7906 38.0999 38.7C39.2899 37.1 41.4799 36.17 44.5999 35.89C44.3199 39.05 43.39 41.24 41.79 42.39V42.43Z" fill="black"/>
</svg>
