<svg width="70" height="70" viewBox="0 0 70 70" fill="none" xmlns="http://www.w3.org/2000/svg">
<path d="M57.3931 10H12.6148C11.9213 10 11.2563 10.2755 10.7659 10.766C10.2755 11.2565 10 11.9217 10 12.6154V58.3846C10 59.0783 10.2755 59.7435 10.7659 60.2339C11.2563 60.7244 11.9213 61 12.6148 61H57.3931C57.964 60.9976 58.5183 60.8083 58.9715 60.4612C59.4248 60.1141 59.7521 59.6282 59.9034 59.0777C59.9477 58.9193 59.9782 58.7574 59.9948 58.5938C60.0017 58.5068 60.0017 58.4193 59.9948 58.3323V12.6154C59.9949 11.924 59.7211 11.2607 59.2336 10.7706C58.746 10.2805 58.0844 10.0035 57.3931 10ZM54.7783 32.8453H37.6253V15.2308H54.7783V32.8453ZM15.2296 26.6862H32.3957V44.2485H15.2296V26.6862ZM54.7783 55.6515H37.6253V38.0761H54.7783V55.6515ZM32.3957 15.2308V21.4554H15.2296V15.2308H32.3957ZM15.2296 49.4792H32.3957V55.7039H15.2296V49.4792Z" fill="black"/>
</svg>
