<svg width="42" height="42" viewBox="0 0 42 42" fill="none" xmlns="http://www.w3.org/2000/svg">
<circle cx="21" cy="21" r="21" fill="#ED9118"/>
<path fill-rule="evenodd" clip-rule="evenodd" d="M30.3185 11.561C29.1826 10.4145 27.8297 9.50571 26.3388 8.88779C24.8478 8.26986 23.2487 7.95513 21.6348 7.96202C19.4816 7.96463 17.3669 8.53325 15.5027 9.61081C13.6386 10.6884 12.0904 12.237 11.0135 14.1016C9.93659 15.9661 9.36874 18.081 9.36689 20.2342C9.36503 22.3874 9.92925 24.5033 11.003 26.3696L9.35205 32.7256L15.8566 31.0747C17.6556 32.0512 19.6704 32.562 21.7173 32.5605C24.972 32.5605 28.0937 31.2687 30.3967 28.9688C32.6997 26.6689 33.9957 23.549 34 20.2943C34.0028 18.6662 33.6783 17.0542 33.0459 15.5539C32.4135 14.0537 31.486 12.6958 30.3185 11.561ZM21.6348 30.4474C19.8081 30.4508 18.0154 29.9541 16.4509 29.0111L16.0712 28.7965L12.2081 29.8035L13.2482 26.0394L13.0005 25.6597C11.7999 23.7425 11.2705 21.4806 11.4956 19.2297C11.7207 16.9787 12.6875 14.8664 14.244 13.2249C15.8004 11.5833 17.8583 10.5056 20.0941 10.1611C22.3299 9.8167 24.6168 10.2251 26.5951 11.3221C28.5735 12.4191 30.1312 14.1425 31.0233 16.2213C31.9154 18.3001 32.0913 20.6165 31.5234 22.8062C30.9555 24.9959 29.6759 26.9348 27.8859 28.318C26.0959 29.7011 23.8969 30.4502 21.6348 30.4474ZM27.2313 22.8037C26.9342 22.6551 25.4153 21.9122 25.1347 21.7966C24.854 21.681 24.6559 21.648 24.4578 21.9617C24.2597 22.2754 23.6654 22.9523 23.4838 23.1669C23.3022 23.3815 23.1206 23.398 22.8069 23.1669C21.906 22.8053 21.0739 22.2915 20.3471 21.648C19.6943 21.0239 19.1379 20.3061 18.6962 19.5184C18.5146 19.2212 18.6962 19.0561 18.8282 18.8911C18.9603 18.726 19.1254 18.5444 19.2905 18.3628C19.4112 18.2057 19.5111 18.0337 19.5877 17.851C19.6325 17.7672 19.6559 17.6736 19.6559 17.5786C19.6559 17.4835 19.6325 17.39 19.5877 17.3061C19.5877 17.1576 18.8943 15.6553 18.6466 15.0444C18.399 14.4336 18.1349 14.5161 17.9533 14.5161H17.3589C17.2056 14.5225 17.0552 14.5594 16.9163 14.6246C16.7774 14.6898 16.6529 14.782 16.55 14.8958C16.2045 15.2255 15.9309 15.6229 15.7463 16.0632C15.5616 16.5036 15.4699 16.9773 15.4769 17.4547C15.5719 18.6094 16.0022 19.7112 16.7151 20.6245C18.0346 22.5986 19.8434 24.197 21.965 25.2635C22.6914 25.5772 23.2692 25.7588 23.7149 25.9074C24.3408 26.0966 25.0025 26.1361 25.6465 26.0229C26.072 25.9359 26.4749 25.762 26.83 25.512C27.1851 25.262 27.4847 24.9414 27.7101 24.5702C27.9188 24.1161 27.9822 23.6088 27.8917 23.1174C27.7431 23.0348 27.545 22.9523 27.2313 22.8037Z" fill="white"/>
</svg>
